<svg id="Layer_1" data-name="Layer 1" xmlns="http://www.w3.org/2000/svg" viewBox="0 0 280.22 60.12"><defs><style>.cls-1{fill:#0e2140;}.cls-2{fill:#8e9999;}.cls-3{fill:#ed6533;}</style></defs><title>clsg-logo</title><path class="cls-1" d="M206.54,42.31V33.9c0-1.9.9-2.8,2.8-2.8h4.82c1.9,0,2.8.9,2.8,2.8v1.84h-2.88v-1.6c0-.3-.1-.4-.4-.4h-3.86c-.3,0-.4.1-.4.4v7.93c0,.3.1.4.4.4h3.86c.3,0,.4-.1.4-.4V39.91h-2.64V37.38H217v4.93c0,1.9-.9,2.8-2.8,2.8h-4.82C207.44,45.11,206.54,44.21,206.54,42.31Z"/><path class="cls-1" d="M227,42.07h-4.8l-.86,3h-3l4.26-14h4.2l4.26,14h-3.16Zm-.74-2.64-1.66-5.89-1.66,5.89Z"/><path class="cls-1" d="M232.92,31.1h3.16l3.72,8.25,3.72-8.25h3.16v14h-2.84V36.18l-3,7.07H238.7l-3-7.07v8.93h-2.76Z"/><path class="cls-1" d="M249.84,31.1h2.88v14h-2.88Z"/><path class="cls-1" d="M255.88,31.1h3l5.3,9v-9H267v14h-2.8l-5.5-9.35v9.35h-2.8Z"/><path class="cls-1" d="M269.8,42.31V33.9c0-1.9.9-2.8,2.8-2.8h4.82c1.9,0,2.8.9,2.8,2.8v1.84h-2.88v-1.6c0-.3-.1-.4-.4-.4h-3.86c-.3,0-.4.1-.4.4v7.93c0,.3.1.4.4.4h3.86c.3,0,.4-.1.4-.4V39.91H274.7V37.38h5.52v4.93c0,1.9-.9,2.8-2.8,2.8H272.6C270.7,45.11,269.8,44.21,269.8,42.31Z"/><path class="cls-1" d="M67.46,42.31V40.55h2.8v1.56c0,.3.1.4.4.4h3.72c.3,0,.4-.1.4-.4V40.43c0-.44-.16-.56-.68-.68L70.38,39c-1.76-.39-2.88-1.09-2.88-2.89V33.9c0-1.9.9-2.8,2.8-2.8h4.32c1.9,0,2.8.9,2.8,2.8v1.6h-2.8V34.1c0-.3-.1-.4-.4-.4H70.78c-.3,0-.4.1-.4.4v1.52c0,.44.16.56.68.68l3.72.81c1.76.37,2.88,1.08,2.88,2.88v2.32c0,1.9-.9,2.8-2.8,2.8h-4.6C68.36,45.11,67.46,44.21,67.46,42.31Z"/><path class="cls-1" d="M80.4,31.1h2.88v14H80.4Z"/><path class="cls-1" d="M86.44,31.1H89.6l3.72,8.25L97,31.1h3.16v14H97.36V36.18l-3,7.07H92.22l-3-7.07v8.93H86.44Z"/><path class="cls-1" d="M103.22,42.31V31.1h2.88v11c0,.3.1.4.4.4h3.92c.3,0,.4-.1.4-.4v-11h2.88V42.31c0,1.9-.9,2.8-2.8,2.8H106C104.12,45.11,103.22,44.21,103.22,42.31Z"/><path class="cls-1" d="M116.72,31.1h2.88V42.47h6v2.64h-8.92Z"/><path class="cls-1" d="M135.26,42.07h-4.8l-.86,3h-3l4.26-14H135l4.26,14h-3.16Zm-.74-2.64-1.66-5.89-1.66,5.89Z"/><path class="cls-1" d="M142.3,33.7h-3.8V31.1H149v2.6h-3.8V45.11H142.3Z"/><path class="cls-1" d="M151.06,31.1h2.88v14h-2.88Z"/><path class="cls-1" d="M156.76,42.31V33.9c0-1.9.9-2.8,2.8-2.8h5.14c1.9,0,2.8.9,2.8,2.8v8.41c0,1.9-.9,2.8-2.8,2.8h-5.14C157.66,45.11,156.76,44.21,156.76,42.31Zm7.46.16c.3,0,.4-.1.4-.4V34.14c0-.3-.1-.4-.4-.4H160c-.3,0-.4.1-.4.4v7.93c0,.3.1.4.4.4Z"/><path class="cls-1" d="M170.32,31.1h3l5.3,9v-9h2.8v14h-2.8l-5.5-9.35v9.35h-2.8Z"/><path class="cls-1" d="M200.42,36.6,197.15,41l3.35,3.28h-3.32l-1.47-1.42a4.71,4.71,0,0,1-3.75,1.6c-2.79,0-4-1.77-4-3.46,0-1.33.57-2.3,2.46-3.42A3.81,3.81,0,0,1,189.15,35a3.27,3.27,0,0,1,3.53-3.3c2.22,0,3.46,1.44,3.46,3,0,1.19-.63,2.09-2.31,3l1.8,1.76,2.16-2.95Zm-6.24,4.81-2.56-2.47a2.12,2.12,0,0,0-1.05,1.78,1.56,1.56,0,0,0,1.68,1.61A2.4,2.4,0,0,0,194.18,41.41Zm-2.67-6.57c0,.63.38,1.08,1.08,1.76,1-.68,1.28-1.24,1.28-1.82a1.16,1.16,0,0,0-1.17-1.29A1.2,1.2,0,0,0,191.51,34.84Z"/><path class="cls-2" d="M74.89,21a3.32,3.32,0,0,1-3.57,2.68c-2.62,0-3.86-1.86-3.86-4.21s1.29-4.29,4-4.29a3.17,3.17,0,0,1,3.48,2.67H73.1a1.63,1.63,0,0,0-1.75-1.28c-1.48,0-2,1.33-2,2.84s.49,2.87,2.09,2.87A1.64,1.64,0,0,0,73.09,21Z"/><path class="cls-2" d="M84.37,20h-4v2.1h4.36l-.21,1.46H78.67V15.34h5.86V16.8H80.41v1.76h4Z"/><path class="cls-2" d="M88.45,23.6V15.34h2.22c1,1.84,2.94,5.2,3.32,6.1h0c-.1-.86-.1-2.3-.1-3.66V15.34h1.62V23.6h-2.1c-.89-1.62-3-5.46-3.42-6.42h0c.06.72.08,2.43.08,3.9V23.6Z"/><path class="cls-2" d="M101.69,16.8H99.17V15.34H106V16.8h-2.51v6.8h-1.78Z"/><path class="cls-2" d="M115.18,20h-4v2.1h4.36l-.22,1.46h-5.88V15.34h5.86V16.8h-4.12v1.76h4Z"/><path class="cls-2" d="M121,20.29V23.6h-1.75V15.34h3.63c1.8,0,2.77,1,2.77,2.26a2,2,0,0,1-1.2,2c.41.15,1,.57,1,2.06V22a6.22,6.22,0,0,0,.12,1.57h-1.7a6,6,0,0,1-.17-1.86v-.12c0-.9-.23-1.33-1.56-1.33Zm0-1.43h1.5c1,0,1.35-.37,1.35-1.05s-.44-1.06-1.32-1.06H121Z"/><path class="cls-2" d="M149.2,15.34H151v6.8h4.13l-.21,1.46H149.2Z"/><path class="cls-2" d="M164.27,20h-4v2.1h4.37l-.22,1.46h-5.88V15.34h5.86V16.8h-4.13v1.76h4Z"/><path class="cls-2" d="M170.2,21.69l-.63,1.91H167.8l2.81-8.26h2.24l2.94,8.26h-1.88l-.69-1.91Zm2.64-1.46c-.59-1.75-1-2.87-1.16-3.61h0c-.21.82-.62,2.11-1.08,3.61Z"/><path class="cls-2" d="M179.25,15.34h3.29a3.76,3.76,0,0,1,4,4,3.94,3.94,0,0,1-4.07,4.23h-3.2ZM181,22.16h1.34c1.59,0,2.29-1.19,2.29-2.79,0-1.36-.66-2.59-2.28-2.59H181Z"/><path class="cls-2" d="M196.18,20h-4v2.1h4.37l-.22,1.46h-5.89V15.34h5.87V16.8h-4.13v1.76h4Z"/><path class="cls-2" d="M202,20.29V23.6h-1.76V15.34h3.64c1.8,0,2.77,1,2.77,2.26a2,2,0,0,1-1.2,2c.41.15,1,.57,1,2.06V22a6.22,6.22,0,0,0,.12,1.57h-1.7a5.71,5.71,0,0,1-.17-1.86v-.12c0-.9-.23-1.33-1.56-1.33Zm0-1.43h1.49c1,0,1.36-.37,1.36-1.05s-.44-1.06-1.32-1.06H202Z"/><path class="cls-2" d="M212,21.18a1.54,1.54,0,0,0,1.74,1.2c1,0,1.37-.39,1.37-1s-.4-1-1.81-1.29c-2.26-.53-2.81-1.36-2.81-2.47,0-1.44,1.08-2.41,3-2.41,2.2,0,3.07,1.17,3.19,2.38h-1.79c-.1-.51-.38-1.06-1.44-1.06-.74,0-1.17.3-1.17.88s.35.82,1.69,1.12c2.4.57,2.93,1.46,2.93,2.64,0,1.5-1.14,2.54-3.32,2.54s-3.22-1-3.41-2.54Z"/><path class="cls-2" d="M220.6,15.34h1.79v3.21h3.33V15.34h1.79V23.6h-1.79V20h-3.33V23.6H220.6Z"/><path class="cls-2" d="M233.67,15.34V23.6h-1.79V15.34Z"/><path class="cls-2" d="M238,15.34h3.42c1.76,0,2.95,1,2.95,2.55,0,1.8-1.36,2.63-3,2.63h-1.59V23.6H238Zm1.79,3.75h1.36c.83,0,1.42-.32,1.42-1.16s-.62-1.18-1.38-1.18h-1.4Z"/><path class="cls-2" d="M136,18.27l-.08.25h-1L134,22a8.09,8.09,0,0,1-1.36,3.13,2.19,2.19,0,0,1-1.63.79,1.65,1.65,0,0,1-.88-.23.65.65,0,0,1-.4-.56.44.44,0,0,1,.12-.32.42.42,0,0,1,.29-.12.39.39,0,0,1,.31.13.46.46,0,0,1,.12.3s0,.08,0,.15v.1a.26.26,0,0,0,.14.2.62.62,0,0,0,.34.09,1.38,1.38,0,0,0,1.18-.75,12.15,12.15,0,0,0,1.09-3l.9-3.34H133l.07-.25h1.16c0-.05.05-.16.1-.34.52-1.95,1.38-2.92,2.56-2.92a1.18,1.18,0,0,1,.77.22.63.63,0,0,1,.26.44c0,.21-.09.31-.29.31s-.32-.13-.5-.4a.52.52,0,0,0-.45-.3,1.1,1.1,0,0,0-.76.37,5.44,5.44,0,0,0-.8,2l-.17.63Z"/><path class="cls-2" d="M135.64,21.52A4.23,4.23,0,0,1,136,20a3.36,3.36,0,0,1,.93-1.34,1.84,1.84,0,0,1,1.19-.52,1.05,1.05,0,0,1,.86.44,2,2,0,0,1,.33,1.2,4.15,4.15,0,0,1-.37,1.74,3.35,3.35,0,0,1-.94,1.25,1.79,1.79,0,0,1-1.11.44,1.17,1.17,0,0,1-.86-.37A1.88,1.88,0,0,1,135.64,21.52Zm.63.68a.89.89,0,0,0,.16.54.52.52,0,0,0,.45.22c.52,0,1-.5,1.29-1.49a7.7,7.7,0,0,0,.51-2.27,1,1,0,0,0-.16-.61.54.54,0,0,0-.46-.2q-.74,0-1.26,1.38A6.77,6.77,0,0,0,136.27,22.2Z"/><path class="cls-2" d="M140.17,19.69h-.26a3.75,3.75,0,0,1,.62-1.12,1,1,0,0,1,.73-.47.41.41,0,0,1,.38.21,1.19,1.19,0,0,1,.12.61,6.09,6.09,0,0,1-.26,1.45s.09-.18.19-.42a7.64,7.64,0,0,1,.76-1.41.9.9,0,0,1,.66-.44.45.45,0,0,1,.33.13.45.45,0,0,1,.12.31.39.39,0,0,1-.1.29.34.34,0,0,1-.25.11.44.44,0,0,1-.32-.19.17.17,0,0,0-.13-.08q-.28,0-.9,1.41a23.76,23.76,0,0,0-1,2.65l-.13.42H140l.94-3.1a5.69,5.69,0,0,0,.26-1.21.54.54,0,0,0,0-.25.14.14,0,0,0-.14-.08c-.12,0-.29.14-.48.41A3.24,3.24,0,0,0,140.17,19.69Z"/><path class="cls-3" d="M39.06,20.6a2.7,2.7,0,1,1,3.69,1A2.71,2.71,0,0,1,39.06,20.6ZM42.7,15a2,2,0,1,0-2.76-.74A2,2,0,0,0,42.7,15Zm-.84-5.25a1.49,1.49,0,1,0-2-.55A1.49,1.49,0,0,0,41.86,9.72Zm3.71,2a1.49,1.49,0,1,0,1.49,2.58,1.49,1.49,0,0,0-1.49-2.58ZM40.65,5.8a1.13,1.13,0,0,0,.41-1.53,1.12,1.12,0,1,0-.41,1.53Zm4.77,2.14a1.12,1.12,0,0,0,1.12,1.94,1.12,1.12,0,0,0-1.12-1.94ZM39.16,2.17A.91.91,0,0,0,38.25.6a.91.91,0,1,0,.91,1.57Zm6.24,4a.74.74,0,0,0-.74-1.29A.74.74,0,0,0,45.4,6.2Zm-.29,9.48a1,1,0,0,0-.38,1.39,1,1,0,0,0,1.4.38,1,1,0,0,0,.37-1.4A1,1,0,0,0,45.11,15.68Zm.18,13.39a2.7,2.7,0,1,0-2.7-2.7A2.7,2.7,0,0,0,45.29,29.07Zm3.26-5.75a2,2,0,1,0-2-2A2,2,0,0,0,48.55,23.32Zm1.9-5A1.49,1.49,0,1,0,49,16.85,1.49,1.49,0,0,0,50.45,18.34Zm2.21,3.59a1.49,1.49,0,1,0,1.49,1.49A1.49,1.49,0,0,0,52.66,21.93Zm-1.3-7.59a1.12,1.12,0,1,0-1.12-1.12A1.12,1.12,0,0,0,51.36,14.34Zm3.06,4.24a1.12,1.12,0,1,0,1.12,1.12A1.12,1.12,0,0,0,54.42,18.58Zm-2.54-8.12a.91.91,0,1,0,0-1.81.91.91,0,0,0,0,1.81Zm3.39,6.6a.74.74,0,1,0,0-1.48.74.74,0,0,0,0,1.48Zm-5,8.07a1,1,0,1,0,1,1A1,1,0,0,0,50.28,25.13ZM43.74,36.81a2.7,2.7,0,1,0-1-3.68A2.7,2.7,0,0,0,43.74,36.81Zm5.7-3.34a2,2,0,0,0,2.77-.75,2,2,0,1,0-2.77.75Zm4.13-3.36a1.49,1.49,0,1,0-.54-2A1.5,1.5,0,0,0,53.57,30.11Zm.12,4.21a1.49,1.49,0,1,0,.55,2A1.49,1.49,0,0,0,53.69,34.32Zm2.67-7.22A1.12,1.12,0,1,0,56,25.57,1.12,1.12,0,0,0,56.36,27.1Zm.53,5.2a1.12,1.12,0,1,0,.41,1.53A1.13,1.13,0,0,0,56.89,32.3ZM58.76,24a.9.9,0,1,0-.33-1.24A.9.9,0,0,0,58.76,24Zm-.37,7.41a.74.74,0,1,0-.27-1A.74.74,0,0,0,58.39,31.41ZM50,35.9a1,1,0,1,0,.37,1.4A1,1,0,0,0,50,35.9ZM38.53,42.75a2.7,2.7,0,1,0,1-3.69A2.71,2.71,0,0,0,38.53,42.75Zm6.61,0a2,2,0,1,0,.74-2.76A2,2,0,0,0,45.14,42.7Zm5.26-.84a1.49,1.49,0,1,0,.54-2A1.49,1.49,0,0,0,50.4,41.86Zm-2,3.71a1.49,1.49,0,1,0-.55,2A1.49,1.49,0,0,0,48.4,45.57Zm5.92-4.92a1.12,1.12,0,1,0,1.94-1.12,1.12,1.12,0,0,0-1.94,1.12Zm-2.15,4.77a1.12,1.12,0,1,0-1.93,1.12,1.12,1.12,0,1,0,1.93-1.12Zm5.77-6.26a.91.91,0,1,0,.33-1.24A.91.91,0,0,0,57.94,39.16Zm-4,6.24a.74.74,0,0,0,1,.27.74.74,0,1,0-1-.27Zm-9.48-.29a1,1,0,1,0-1.77,1,1,1,0,0,0,1.77-1Zm-13.39.18a2.7,2.7,0,1,0,2.7-2.7A2.7,2.7,0,0,0,31.05,45.29Zm5.75,3.26a2,2,0,1,0,2-2A2,2,0,0,0,36.8,48.55Zm5,1.9A1.5,1.5,0,1,0,43.26,49,1.49,1.49,0,0,0,41.77,50.45Zm-3.58,2.21a1.5,1.5,0,1,0-1.49,1.49A1.49,1.49,0,0,0,38.19,52.66Zm7.58-1.3a1.12,1.12,0,1,0,1.12-1.12A1.12,1.12,0,0,0,45.77,51.36Zm-4.24,3.06a1.12,1.12,0,1,0-1.12,1.12A1.12,1.12,0,0,0,41.53,54.42Zm8.13-2.54a.91.91,0,1,0,.9-.9A.9.9,0,0,0,49.66,51.88Zm-6.61,3.39a.75.75,0,0,0,.74.75.76.76,0,0,0,.75-.75.75.75,0,0,0-.75-.74A.74.74,0,0,0,43.05,55.27Zm-8.06-5a1,1,0,1,0-1,1A1,1,0,0,0,35,50.28ZM23.3,43.74a2.7,2.7,0,1,0,3.69-1A2.71,2.71,0,0,0,23.3,43.74Zm3.35,5.7a2,2,0,1,0,2.77-.74A2,2,0,0,0,26.65,49.44ZM30,53.57a1.49,1.49,0,1,0,2-.54A1.49,1.49,0,0,0,30,53.57Zm-4.21.12a1.48,1.48,0,0,0-.55-2,1.49,1.49,0,1,0,.55,2ZM33,56.36A1.12,1.12,0,0,0,35,57.48,1.13,1.13,0,0,0,34.55,56,1.12,1.12,0,0,0,33,56.36Zm-5.21.53a1.12,1.12,0,1,0-1.52.41A1.11,1.11,0,0,0,27.81,56.89Zm8.31,1.87a.9.9,0,1,0,1.24-.33A.9.9,0,0,0,36.12,58.76Zm-7.42-.37a.75.75,0,1,0,1-.27A.76.76,0,0,0,28.7,58.39ZM24.22,50a1,1,0,1,0-1.4.37A1,1,0,0,0,24.22,50ZM17.37,38.53a2.7,2.7,0,1,0,3.68,1A2.69,2.69,0,0,0,17.37,38.53Zm0,6.61a2,2,0,1,0,2.77.74A2,2,0,0,0,17.41,45.14Zm.85,5.26a1.49,1.49,0,1,0,2,.54A1.5,1.5,0,0,0,18.26,50.4Zm-3.71-2a1.49,1.49,0,1,0-2-.55A1.5,1.5,0,0,0,14.55,48.4Zm4.92,5.92a1.12,1.12,0,1,0,1.53.41A1.11,1.11,0,0,0,19.47,54.32ZM14.7,52.17a1.12,1.12,0,1,0-1.53-.41A1.11,1.11,0,0,0,14.7,52.17ZM21,57.94a.9.9,0,1,0,1.23.33A.9.9,0,0,0,21,57.94Zm-6.24-4a.74.74,0,1,0,1,.27A.74.74,0,0,0,14.72,53.92ZM15,44.44a1,1,0,0,0,.37-1.4,1,1,0,0,0-1.77,1A1,1,0,0,0,15,44.44Zm-.18-13.39a2.7,2.7,0,1,0,2.7,2.7A2.7,2.7,0,0,0,14.83,31.05ZM11.57,36.8a2,2,0,1,0,2,2A2,2,0,0,0,11.57,36.8Zm-1.9,5a1.5,1.5,0,1,0,1.49,1.49A1.49,1.49,0,0,0,9.67,41.77ZM7.46,38.19A1.5,1.5,0,1,0,6,36.7,1.49,1.49,0,0,0,7.46,38.19Zm1.3,7.58a1.12,1.12,0,1,0,1.12,1.12A1.12,1.12,0,0,0,8.76,45.77ZM5.7,41.53a1.12,1.12,0,1,0-1.12-1.12A1.12,1.12,0,0,0,5.7,41.53Zm2.53,8.13a.91.91,0,0,0,0,1.81.91.91,0,1,0,0-1.81ZM4.84,43.05a.74.74,0,0,0-.74.74.74.74,0,1,0,1.48,0A.74.74,0,0,0,4.84,43.05Zm5-8.06a1,1,0,1,0-1-1A1,1,0,0,0,9.83,35ZM16.37,23.3a2.7,2.7,0,1,0,1,3.69A2.7,2.7,0,0,0,16.37,23.3Zm-5.7,3.35a2,2,0,1,0,.74,2.77A2,2,0,0,0,10.67,26.65ZM6.54,30a1.49,1.49,0,0,0-1.49,2.58A1.49,1.49,0,1,0,6.54,30ZM6.42,25.8a1.49,1.49,0,1,0-.54-2A1.49,1.49,0,0,0,6.42,25.8ZM3.75,33a1.12,1.12,0,0,0-1.53.41,1.12,1.12,0,0,0,1.94,1.12A1.11,1.11,0,0,0,3.75,33Zm-.53-5.21a1.12,1.12,0,1,0,1.12-1.93,1.12,1.12,0,0,0-1.12,1.93ZM1.36,36.12a.91.91,0,1,0,.33,1.24A.91.91,0,0,0,1.36,36.12Zm.36-7.42a.74.74,0,1,0,.27,1A.75.75,0,0,0,1.72,28.7Zm8.36-4.48a1,1,0,0,0,1-1.78,1,1,0,1,0-1,1.78Zm11.5-6.85a2.69,2.69,0,1,0-1,3.68A2.68,2.68,0,0,0,21.58,17.37Zm-6.61,0a2,2,0,1,0-.74,2.77A2,2,0,0,0,15,17.41Zm-5.25.85a1.49,1.49,0,1,0-.55,2A1.5,1.5,0,0,0,9.72,18.26Zm2-3.71a1.49,1.49,0,1,0,.54-2A1.49,1.49,0,0,0,11.72,14.55ZM5.8,19.47A1.12,1.12,0,1,0,5.39,21,1.12,1.12,0,0,0,5.8,19.47ZM7.94,14.7a1.12,1.12,0,1,0,.41-1.53A1.12,1.12,0,0,0,7.94,14.7ZM2.17,21a.89.89,0,0,0-1.23-.33.9.9,0,1,0,.9,1.56A.9.9,0,0,0,2.17,21Zm4-6.24a.74.74,0,1,0-.27,1A.75.75,0,0,0,6.2,14.72Zm9.48.29a1,1,0,0,0,1.77-1,1,1,0,0,0-1.4-.38A1,1,0,0,0,15.68,15Zm13.39-.18a2.7,2.7,0,1,0-2.7,2.7A2.7,2.7,0,0,0,29.07,14.83Zm-5.75-3.26a2,2,0,1,0-2,2A2,2,0,0,0,23.32,11.57Zm-5-1.9a1.49,1.49,0,1,0-1.49,1.49A1.49,1.49,0,0,0,18.34,9.67Zm3.59-2.21A1.49,1.49,0,1,0,23.42,6,1.49,1.49,0,0,0,21.93,7.46Zm-7.59,1.3a1.12,1.12,0,1,0-1.12,1.12A1.12,1.12,0,0,0,14.34,8.76ZM18.58,5.7A1.12,1.12,0,1,0,19.7,4.58,1.12,1.12,0,0,0,18.58,5.7ZM10.46,8.23a.91.91,0,1,0-.91.91A.9.9,0,0,0,10.46,8.23Zm6.6-3.39a.74.74,0,1,0-.74.74A.74.74,0,0,0,17.06,4.84Zm8.07,5a1,1,0,1,0,1-1A1,1,0,0,0,25.13,9.83Zm11.68,6.54a2.7,2.7,0,1,0-3.68,1A2.68,2.68,0,0,0,36.81,16.37Zm-3.34-5.7a2,2,0,1,0-2.77.74A2,2,0,0,0,33.47,10.67ZM30.11,6.54a1.49,1.49,0,1,0-2,.55A1.49,1.49,0,0,0,30.11,6.54Zm4.21-.12a1.49,1.49,0,1,0,2-.54A1.5,1.5,0,0,0,34.32,6.42ZM27.1,3.75a1.12,1.12,0,1,0-1.53.41A1.13,1.13,0,0,0,27.1,3.75Zm5.2-.53a1.12,1.12,0,0,0,1.94,1.12,1.1,1.1,0,0,0-.41-1.52A1.12,1.12,0,0,0,32.3,3.22ZM24,1.36a.91.91,0,1,0-1.24.33A.91.91,0,0,0,24,1.36Zm7.41.36a.73.73,0,0,0-.27-1,.74.74,0,0,0-1,.27.74.74,0,1,0,1.28.74Zm4.49,8.36a1,1,0,1,0,1.4-.38A1,1,0,0,0,35.9,10.08Z"/></svg>